<svg width="486" height="1016" viewBox="0 0 486 1016" fill="none" xmlns="http://www.w3.org/2000/svg">
<path d="M0.5 0.143928L23.5 130.144L70 202.144L110 308.644L139 381.144V450.144V496.144L110 531.144L70 588.644L23.5 652.144L0.5 709.644V770.144L23.5 825.144L70 900.144L93 969.144L46.5 1084.64M407 0.143928L433 86.6439L456 176.144V225.144L433 277.144L407 355.144L393 444.144L407 496.144L456 548.144L485 652.144V724.144L456 793.144L433 842.144V885.644V923.144L393 995.144V1055.64L323.5 1084.64" stroke="#D8C7A2" stroke-opacity="0.01"/>
</svg>
